<svg width="44" height="44" viewBox="0 0 44 44" fill="none" xmlns="http://www.w3.org/2000/svg">
<g clip-path="url(#clip0)">
<path d="M31.9797 17.8801C31.9329 16.8174 31.761 16.0868 31.5148 15.4537C31.2609 14.7818 30.8702 14.1801 30.3583 13.68C29.8582 13.1721 29.2526 12.7774 28.5884 12.5274C27.9517 12.2813 27.2249 12.1094 26.1622 12.0626C25.0916 12.0118 24.7517 12 22.0364 12C19.321 12 18.9811 12.0118 17.9145 12.0586C16.8518 12.1055 16.1212 12.2775 15.4883 12.5235C14.8162 12.7774 14.2146 13.1681 13.7144 13.68C13.2065 14.1801 12.812 14.7857 12.5619 15.4499C12.3157 16.0868 12.1439 16.8134 12.097 17.8761C12.0462 18.9467 12.0344 19.2866 12.0344 22.002C12.0344 24.7173 12.0462 25.0572 12.093 26.1239C12.1399 27.1865 12.3119 27.9171 12.5581 28.5502C12.812 29.2221 13.2065 29.8238 13.7144 30.3239C14.2146 30.8318 14.8202 31.2265 15.4843 31.4765C16.1212 31.7226 16.8478 31.8945 17.9107 31.9413C18.9771 31.9883 19.3172 31.9999 22.0326 31.9999C24.7479 31.9999 25.0878 31.9883 26.1544 31.9413C27.2171 31.8945 27.9477 31.7226 28.5806 31.4765C29.9247 30.9568 30.9874 29.8941 31.5071 28.5502C31.7531 27.9133 31.9251 27.1865 31.9719 26.1239C32.0188 25.0572 32.0305 24.7173 32.0305 22.002C32.0305 19.2866 32.0266 18.9467 31.9797 17.8801ZM30.1787 26.0457C30.1356 27.0225 29.9716 27.5499 29.8348 27.9015C29.4988 28.7728 28.8072 29.4643 27.936 29.8004C27.5843 29.9372 27.0531 30.1012 26.0801 30.1441C25.0252 30.1911 24.7089 30.2027 22.0403 30.2027C19.3718 30.2027 19.0515 30.1911 18.0004 30.1441C17.0236 30.1012 16.4962 29.9372 16.1446 29.8004C15.711 29.6402 15.3163 29.3862 14.996 29.0541C14.6639 28.7298 14.4099 28.3391 14.2497 27.9055C14.1129 27.5539 13.9489 27.0225 13.906 26.0497C13.859 24.9948 13.8474 24.6783 13.8474 22.0097C13.8474 19.3412 13.859 19.0209 13.906 17.9699C13.9489 16.9932 14.1129 16.4657 14.2497 16.1141C14.4099 15.6804 14.6639 15.2859 14.9999 14.9654C15.3241 14.6333 15.7148 14.3793 16.1485 14.2192C16.5002 14.0825 17.0316 13.9184 18.0044 13.8754C19.0593 13.8285 19.3758 13.8168 22.0442 13.8168C24.7166 13.8168 25.033 13.8285 26.0841 13.8754C27.0608 13.9184 27.5883 14.0825 27.9399 14.2192C28.3735 14.3793 28.7682 14.6333 29.0885 14.9654C29.4206 15.2897 29.6746 15.6804 29.8348 16.1141C29.9716 16.4657 30.1356 16.997 30.1787 17.9699C30.2255 19.0248 30.2373 19.3412 30.2373 22.0097C30.2373 24.6783 30.2255 24.9908 30.1787 26.0457Z" fill="#AFB1B8"/>
<path d="M22.0371 16.8641C19.2007 16.8641 16.8994 19.1653 16.8994 22.0019C16.8994 24.8384 19.2007 27.1396 22.0371 27.1396C24.8737 27.1396 27.1749 24.8384 27.1749 22.0019C27.1749 19.1653 24.8737 16.8641 22.0371 16.8641ZM22.0371 25.3346C20.197 25.3346 18.7044 23.8421 18.7044 22.0019C18.7044 20.1616 20.197 18.6691 22.0371 18.6691C23.8774 18.6691 25.3698 20.1616 25.3698 22.0019C25.3698 23.8421 23.8774 25.3346 22.0371 25.3346V25.3346Z" fill="#AFB1B8"/>
<path d="M28.5775 16.6611C28.5775 17.3235 28.0404 17.8605 27.3779 17.8605C26.7155 17.8605 26.1785 17.3235 26.1785 16.6611C26.1785 15.9986 26.7155 15.4617 27.3779 15.4617C28.0404 15.4617 28.5775 15.9986 28.5775 16.6611V16.6611Z" fill="#000000"/>
</g>
<defs>
<clipPath id="clip0">
<rect x="12" y="12" width="20" height="20" fill="white"/>
</clipPath>
</defs>
</svg>
